<?xml version="1.0" encoding="UTF-8"?>
<svg version="1.1" xmlns="http://www.w3.org/2000/svg" width="666" height="375">
<path d="M0 0 C8.91 0 17.82 0 27 0 C27 27.39 27 54.78 27 83 C-21.5 83 -21.5 83 -32 76 C-32 75.34 -32 74.68 -32 74 C-32.60585938 73.74863281 -33.21171875 73.49726563 -33.8359375 73.23828125 C-36.31528622 71.81959254 -37.18036191 70.62474427 -38.625 68.1875 C-39.02976562 67.52105469 -39.43453125 66.85460937 -39.8515625 66.16796875 C-43.89988433 58.52572857 -45.22561291 49.140892 -43.3125 40.625 C-40.60635693 33.15089056 -37.6198834 26.77698545 -31 22 C-27.41933604 20.32631855 -23.79805867 19.08183601 -20 18 C-19.33226562 17.8040625 -18.66453125 17.608125 -17.9765625 17.40625 C-15.63279113 16.92452624 -13.45454321 16.86762853 -11.0625 16.875 C-10.22847656 16.87242187 -9.39445312 16.86984375 -8.53515625 16.8671875 C-6 17 -6 17 -1 18 C-0.67 12.06 -0.34 6.12 0 0 Z M-13 41 C-13 41.66 -13 42.32 -13 43 C-13.66 43 -14.32 43 -15 43 C-17.10900443 46.42713219 -17.47895471 49.00871074 -17 53 C-14.7241177 57.22481746 -14.7241177 57.22481746 -11 60 C-9.12620395 60.07033769 -7.24998898 60.0843022 -5.375 60.0625 C-4.37210937 60.05347656 -3.36921875 60.04445313 -2.3359375 60.03515625 C-1.17964844 60.01775391 -1.17964844 60.01775391 0 60 C0.02888514 56.85418577 0.04675923 53.70840531 0.0625 50.5625 C0.07087891 49.66466797 0.07925781 48.76683594 0.08789062 47.84179688 C0.09111328 46.98779297 0.09433594 46.13378906 0.09765625 45.25390625 C0.10289307 44.46314697 0.10812988 43.6723877 0.11352539 42.85766602 C0.20495909 40.98407311 0.20495909 40.98407311 -1 40 C-2.64340867 39.90145345 -4.2911461 39.87027589 -5.9375 39.875 C-6.83339844 39.87242187 -7.72929687 39.86984375 -8.65234375 39.8671875 C-11.02155555 39.84578587 -11.02155555 39.84578587 -13 41 Z " fill="#0B0B0B" transform="translate(476,144)"/>
<path d="M0 0 C8.91 0 17.82 0 27 0 C27.33 7.59 27.66 15.18 28 23 C30.64 21.68 33.28 20.36 36 19 C42.37111414 16.87629529 50.02899268 17.13913206 56.21875 19.828125 C61.63678982 23.39262488 65.18410825 29.90001748 67 36 C67.39440324 39.66091334 67.35038887 43.28635245 67.29296875 46.96484375 C67.28872391 47.99815323 67.28447906 49.03146271 67.28010559 50.09608459 C67.26339394 53.37682822 67.22575511 56.65694392 67.1875 59.9375 C67.17244348 62.16991297 67.15875677 64.40233562 67.14648438 66.63476562 C67.1135151 72.09005581 67.06339087 77.54498302 67 83 C62.68751391 83.02886537 58.37505238 83.04675255 54.0625 83.0625 C52.83080078 83.07087891 51.59910156 83.07925781 50.33007812 83.08789062 C49.16025391 83.09111328 47.99042969 83.09433594 46.78515625 83.09765625 C45.15912476 83.10551147 45.15912476 83.10551147 43.50024414 83.11352539 C41 83 41 83 40 82 C39.8396444 78.97192956 39.74039552 75.96414546 39.68359375 72.93359375 C39.66281265 72.02497086 39.64203156 71.11634796 39.62062073 70.18019104 C39.55502328 67.26604054 39.4961932 64.35179696 39.4375 61.4375 C39.39432446 59.46678709 39.35071049 57.49608374 39.30664062 55.52539062 C39.19933157 50.68369012 39.09809325 45.84189563 39 41 C37.54054712 41.08708669 36.08234132 41.19526907 34.625 41.3125 C33.81289062 41.37050781 33.00078125 41.42851562 32.1640625 41.48828125 C29.62078662 41.82990528 29.62078662 41.82990528 28 45 C27.75878651 47.89659349 27.62700558 50.7053355 27.5859375 53.60546875 C27.56657135 54.44467361 27.5472052 55.28387848 27.5272522 56.14851379 C27.46748787 58.82807258 27.42108388 61.5076744 27.375 64.1875 C27.3368173 66.00457599 27.29776539 67.82163394 27.2578125 69.63867188 C27.16178897 74.09230132 27.07774641 78.54601551 27 83 C22.68751391 83.02886537 18.37505238 83.04675255 14.0625 83.0625 C12.83080078 83.07087891 11.59910156 83.07925781 10.33007812 83.08789062 C9.16025391 83.09111328 7.99042969 83.09433594 6.78515625 83.09765625 C5.15912476 83.10551147 5.15912476 83.10551147 3.50024414 83.11352539 C1 83 1 83 0 82 C-0.09506052 79.44410112 -0.12556761 76.91532028 -0.11352539 74.35913086 C-0.11367142 73.55919205 -0.11381744 72.75925323 -0.1139679 71.93507385 C-0.11326855 69.27830335 -0.10547518 66.62160207 -0.09765625 63.96484375 C-0.09579215 62.12781309 -0.09436821 60.29078194 -0.09336853 58.45375061 C-0.08954275 53.60890338 -0.07971196 48.76408592 -0.06866455 43.91925049 C-0.05845172 38.97937422 -0.05387119 34.03949315 -0.04882812 29.09960938 C-0.03808974 19.39972437 -0.02049246 9.69986931 0 0 Z " fill="#0A0A0A" transform="translate(214,144)"/>
<path d="M0 0 C1.30259766 -0.01998047 2.60519531 -0.03996094 3.94726562 -0.06054688 C5.22923828 -0.05990234 6.51121094 -0.05925781 7.83203125 -0.05859375 C9.55450073 -0.06137329 9.55450073 -0.06137329 11.31176758 -0.06420898 C15.1875 0.4375 15.1875 0.4375 26.1875 4.4375 C26.1875 13.0175 26.1875 21.5975 26.1875 30.4375 C23.6632535 29.4278014 21.13904813 28.41798671 18.6171875 27.40234375 C17.35261719 26.89380859 17.35261719 26.89380859 16.0625 26.375 C14.79019531 25.86259766 14.79019531 25.86259766 13.4921875 25.33984375 C7.50932291 22.99740015 2.64440694 22.63265117 -3.4375 24.625 C-8.35820284 27.26759967 -12.71835949 30.03480873 -14.8125 35.4375 C-15.47610439 40.97782503 -15.56823895 45.87004144 -13.125 50.9375 C-8.72709933 55.69198721 -4.60592876 59.02954747 1.984375 59.73828125 C10.94804713 59.77385138 17.60034597 58.26568893 25.1875 53.4375 C25.8475 53.4375 26.5075 53.4375 27.1875 53.4375 C27.33242719 57.37461437 27.42144537 61.31104625 27.5 65.25 C27.54189453 66.36955078 27.58378906 67.48910156 27.62695312 68.64257812 C27.64306641 69.71572266 27.65917969 70.78886719 27.67578125 71.89453125 C27.70196533 72.88428955 27.72814941 73.87404785 27.75512695 74.89379883 C27.1875 77.4375 27.1875 77.4375 24.80664062 79.22680664 C10.9495111 85.63224151 -5.22755368 86.26775325 -19.6953125 81.484375 C-23.35785065 80.05352919 -26.53139545 78.62490304 -29.8125 76.4375 C-29.8125 75.7775 -29.8125 75.1175 -29.8125 74.4375 C-30.55371094 74.20417969 -31.29492188 73.97085938 -32.05859375 73.73046875 C-38.36375823 70.77017167 -41.85650945 63.99124635 -44.21484375 57.69140625 C-47.92640691 45.37300379 -47.76565353 34.42488486 -42.8125 22.4375 C-37.01622883 12.01142717 -28.53875753 5.08296843 -17.3269043 1.03295898 C-11.65677076 -0.30983699 -5.79378973 -0.03125634 0 0 Z " fill="#0B0B0B" transform="translate(179.8125,143.5625)"/>
<path d="M0 0 C5.09043069 4.72533833 8.65397459 9.21757294 9.17298889 16.3908844 C9.23113965 19.29134823 9.22469967 22.18503714 9.1953125 25.0859375 C9.1924826 26.14285797 9.18965271 27.19977844 9.18673706 28.28872681 C9.1755785 31.65093501 9.15048159 35.01287286 9.125 38.375 C9.11496462 40.66015239 9.10583975 42.94530898 9.09765625 45.23046875 C9.07565332 50.82040411 9.04221873 56.41018273 9 62 C4.68751391 62.02886537 0.37505238 62.04675255 -3.9375 62.0625 C-5.16919922 62.07087891 -6.40089844 62.07925781 -7.66992188 62.08789062 C-8.83974609 62.09111328 -10.00957031 62.09433594 -11.21484375 62.09765625 C-12.84087524 62.10551147 -12.84087524 62.10551147 -14.49975586 62.11352539 C-17 62 -17 62 -18 61 C-18.16029688 58.04470496 -18.25957328 55.11017543 -18.31640625 52.15234375 C-18.33718735 51.2659169 -18.35796844 50.37949005 -18.37937927 49.46620178 C-18.444974 46.623383 -18.50380552 43.78046883 -18.5625 40.9375 C-18.6056758 39.01496394 -18.64928978 37.09243766 -18.69335938 35.16992188 C-18.80066543 30.44671332 -18.90190451 25.72340847 -19 21 C-22.05847848 20.45627049 -24.88772805 20 -28 20 C-28 20.66 -28 21.32 -28 22 C-28.66 22 -29.32 22 -30 22 C-30.33 35.2 -30.66 48.4 -31 62 C-39.58 62 -48.16 62 -57 62 C-57 40.88 -57 19.76 -57 -2 C-48.42 -2 -39.84 -2 -31 -2 C-30.67 -0.35 -30.34 1.3 -30 3 C-29.29875 2.38125 -28.5975 1.7625 -27.875 1.125 C-20.08925136 -4.62968378 -8.25221849 -5.17786258 0 0 Z " fill="#0A0A0A" transform="translate(416,165)"/>
<path d="M0 0 C0.91072266 0.68642578 0.91072266 0.68642578 1.83984375 1.38671875 C2.52973389 1.80050781 3.21962402 2.21429688 3.93041992 2.640625 C5.83984375 4.38671875 5.83984375 4.38671875 6.29394531 6.83862305 C6.27299805 7.78648682 6.25205078 8.73435059 6.23046875 9.7109375 C6.21757813 10.73896484 6.2046875 11.76699219 6.19140625 12.82617188 C6.15789062 13.89802734 6.124375 14.96988281 6.08984375 16.07421875 C6.07179687 17.15767578 6.05375 18.24113281 6.03515625 19.35742188 C5.98797883 22.03474021 5.92216624 24.71028784 5.83984375 27.38671875 C2.9490785 26.30628323 0.87723076 25.41721868 -1.53515625 23.44921875 C-5.33714183 20.46194436 -9.14086984 18.61108391 -13.97265625 18.07421875 C-16.36640625 18.19296875 -16.36640625 18.19296875 -18.16015625 20.38671875 C-17.953225 23.076825 -17.64332522 24.80451515 -15.90234375 26.90234375 C-13.87652451 28.62837808 -11.89214211 29.59392772 -9.47265625 30.69921875 C-1.57019782 34.56981064 5.42168701 38.92897193 8.83984375 47.38671875 C10.84124793 55.23928691 9.64992593 61.32911687 5.83984375 68.38671875 C1.85091465 74.7139856 -4.1543327 77.37422857 -11.16015625 79.38671875 C-24.9036498 81.20355585 -35.35363848 80.07850442 -48.16015625 74.38671875 C-48.16015625 66.79671875 -48.16015625 59.20671875 -48.16015625 51.38671875 C-43.66083163 52.28658367 -41.89718692 53.14450035 -38.16015625 55.38671875 C-33.49173909 56.81317955 -26.62694033 57.62011079 -22.16015625 55.38671875 C-22.19795923 53.01438264 -22.19795923 53.01438264 -23.16015625 50.38671875 C-25.77690095 48.25134935 -25.77690095 48.25134935 -29.16015625 46.38671875 C-44.28286833 37.27701346 -44.28286833 37.27701346 -47.16015625 29.38671875 C-48.98195091 21.15120864 -48.19965116 14.41082505 -43.83203125 7.19140625 C-34.66620489 -5.88195661 -13.49201816 -8.36655875 0 0 Z " fill="#0D0D0D" transform="translate(81.16015625,147.61328125)"/>
<path d="M0 0 C0 0.66 0 1.32 0 2 C0.66 2 1.32 2 2 2 C7.1279718 6.48697532 7.47434095 12.5861002 8 19 C8.47893019 26.66021487 8.76016073 34.32904329 9 42 C10.98 42.66 12.96 43.32 15 44 C12.10933941 56.66970387 12.10933941 56.66970387 9 62 C-3.58947222 62.51816425 -3.58947222 62.51816425 -8.375 60.4375 C-13.57474522 58.37553207 -17.05750386 59.36495319 -22.25 61.0625 C-30.3353112 63.0838278 -38.46761948 62.74345672 -46 59 C-50.44812611 55.78220664 -51.99514755 52.54731897 -52.90625 47.2734375 C-53.06226437 43.49008892 -51.96135171 41.18719653 -50 38 C-45.59402397 33.48911978 -40.8085545 31.29939823 -35 29 C-33.89011719 28.55140625 -32.78023438 28.1028125 -31.63671875 27.640625 C-22.44311798 24 -22.44311798 24 -19 24 C-19.66 22.35 -20.32 20.7 -21 19 C-30.60038488 18.38720948 -37.19005045 21.71511097 -44.73828125 27.4765625 C-46.93772214 28.95805118 -48.45416718 29.44555486 -51 30 C-52.61909523 9.59192739 -52.61909523 9.59192739 -49.16015625 4.0546875 C-46.48961483 2.1730738 -44.08638415 1.06299667 -41 0 C-40.030625 -0.40605469 -39.06125 -0.81210938 -38.0625 -1.23046875 C-24.92144806 -6.46189296 -12.81301085 -6.40650542 0 0 Z M-26.8125 40.3125 C-28.45861422 42.65171494 -28.35842561 44.20428024 -28 47 C-26.10892859 49.33278733 -26.10892859 49.33278733 -22.9375 49.1875 C-20.11166864 49.33187793 -20.11166864 49.33187793 -19 48 C-18.92773498 46.14712498 -18.9161878 44.29166122 -18.9375 42.4375 C-18.94652344 41.42558594 -18.95554687 40.41367188 -18.96484375 39.37109375 C-18.97644531 38.58863281 -18.98804688 37.80617187 -19 37 C-21.84703543 37 -24.5789198 38.69507986 -26.8125 40.3125 Z " fill="#0C0C0C" transform="translate(340,166)"/>
<path d="M0 0 C5.20595898 4.10195306 7.25665633 8.11677795 8.63671875 14.55859375 C9.10785198 19.24464916 9.23663283 23.9139759 9.32421875 28.62109375 C9.35837891 29.86826172 9.39253906 31.11542969 9.42773438 32.40039062 C9.50960606 35.45303502 9.57895503 38.50541409 9.63671875 41.55859375 C11.61671875 42.54859375 13.59671875 43.53859375 15.63671875 44.55859375 C14.53742925 50.86980878 13.05533933 56.62197959 10.63671875 62.55859375 C3.39808667 62.86066959 -2.59595597 62.79531306 -9.375 60.16796875 C-13.48866116 58.9072003 -17.17790093 60.08995502 -21.05078125 61.62109375 C-28.87389215 63.83518174 -38.13908504 63.56218715 -45.36328125 59.55859375 C-48.96311562 56.32133262 -51.27446519 53.12767744 -51.55078125 48.24609375 C-51.26365992 42.59937428 -50.06261704 39.98915313 -45.94921875 36.1796875 C-41.24688174 32.13719796 -36.29090041 30.14554514 -30.48828125 28.12109375 C-29.53953125 27.77111328 -28.59078125 27.42113281 -27.61328125 27.06054688 C-20.73903039 24.55859375 -20.73903039 24.55859375 -18.36328125 24.55859375 C-18.69328125 22.90859375 -19.02328125 21.25859375 -19.36328125 19.55859375 C-29.13963994 18.93457086 -35.99546556 22.6435729 -43.98046875 28.03515625 C-46.36328125 29.55859375 -46.36328125 29.55859375 -49.36328125 30.55859375 C-49.59672474 26.85133149 -49.73804471 23.14596255 -49.86328125 19.43359375 C-49.9303125 18.386875 -49.99734375 17.34015625 -50.06640625 16.26171875 C-50.25941954 8.63769361 -50.25941954 8.63769361 -47.72265625 5.58300781 C-45.67453132 4.02670236 -43.62855763 2.77230611 -41.36328125 1.55859375 C-40.48929688 0.97464844 -39.6153125 0.39070312 -38.71484375 -0.2109375 C-27.27187949 -6.19853508 -11.19419379 -6.82753307 0 0 Z M-25.36328125 40.55859375 C-27.67871332 43.32847451 -27.67871332 43.32847451 -27.05078125 46.18359375 C-26.58912985 48.4936134 -26.58912985 48.4936134 -25.36328125 49.55859375 C-22.36328125 49.72526042 -22.36328125 49.72526042 -19.36328125 49.55859375 C-18.07715449 48.49880442 -18.07715449 48.49880442 -18.265625 46.0546875 C-18.27722656 45.04535156 -18.28882813 44.03601563 -18.30078125 42.99609375 C-18.30980469 41.98417969 -18.31882812 40.97226563 -18.328125 39.9296875 C-18.33972656 39.14722656 -18.35132813 38.36476562 -18.36328125 37.55859375 C-20.82864664 37.55859375 -23.28378374 39.41274818 -25.36328125 40.55859375 Z " fill="#0D0D0D" transform="translate(620.36328125,165.44140625)"/>
<path d="M0 0 C1.093125 0.66 2.18625 1.32 3.3125 2 C2.05486941 11.31475843 -2.39339324 19.72986846 -6.6875 28 C-9.26937674 27.56968721 -11.34664344 27.19791671 -13.625 25.875 C-17.38926124 24.27804069 -20.96124135 25.75791378 -24.6875 27 C-24.9040625 28.546875 -24.9040625 28.546875 -25.125 30.125 C-25.43447903 32.25696664 -25.76500471 34.38752355 -26.1875 36.5 C-26.91744281 41.6095997 -27.05617472 46.72105911 -27.25 51.875 C-27.394375 55.54625 -27.53875 59.2175 -27.6875 63 C-36.2675 63 -44.8475 63 -53.6875 63 C-53.6875 41.88 -53.6875 20.76 -53.6875 -1 C-45.1075 -1 -36.5275 -1 -27.6875 -1 C-27.3575 1.64 -27.0275 4.28 -26.6875 7 C-26.31238281 6.51789063 -25.93726563 6.03578125 -25.55078125 5.5390625 C-25.03902344 4.90742188 -24.52726563 4.27578125 -24 3.625 C-23.50113281 2.99851563 -23.00226562 2.37203125 -22.48828125 1.7265625 C-16.61543568 -3.90423521 -6.88881909 -3.45666723 0 0 Z " fill="#0C0C0C" transform="translate(566.6875,164)"/>
<path d="M0 0 C4.13672528 1.51219483 5.83698826 3.94250939 8.01171875 7.65234375 C10.0141778 12.40917336 9.97433617 17.23247066 8.265625 22.0859375 C6.24684795 26.00766012 4.05567667 28.34085954 0 30 C-5.12610906 31.26295441 -9.1370139 31.32577596 -14 29 C-18.05606447 26.11395412 -20.85313444 23.93152189 -22 19 C-22.52452558 13.40125959 -22.24194526 8.9727059 -18.765625 4.36328125 C-13.50062923 -1.22751872 -7.27895561 -0.98955736 0 0 Z " fill="#101010" transform="translate(119,197)"/>
<path d="M0 0 C0.66 0 1.32 0 2 0 C1.67 0.99 1.34 1.98 1 3 C0.34 3 -0.32 3 -1 3 C-1 9.93 -1 16.86 -1 24 C-0.34 24.33 0.32 24.66 1 25 C0.01 25 -0.98 25 -2 25 C-2.05786668 21.20839703 -2.09355054 17.41690689 -2.125 13.625 C-2.14175781 12.54476562 -2.15851563 11.46453125 -2.17578125 10.3515625 C-2.18222656 9.3203125 -2.18867188 8.2890625 -2.1953125 7.2265625 C-2.20578613 6.27346191 -2.21625977 5.32036133 -2.22705078 4.33837891 C-2 2 -2 2 0 0 Z " fill="#A3A3A3" transform="translate(291,171)"/>
<path d="M0 0 C0.66 0.33 1.32 0.66 2 1 C-0.31 3.31 -2.62 5.62 -5 8 C-5.66 7.67 -6.32 7.34 -7 7 C-4.78071806 4.09197539 -3.07030857 2.04687238 0 0 Z " fill="#565656" transform="translate(150,151)"/>
</svg>
