<?xml version="1.0" encoding="UTF-8"?>
<svg version="1.1" xmlns="http://www.w3.org/2000/svg" width="151" height="54">
<path d="M0 0 C3.54138618 -0.11681812 7.0822724 -0.187455 10.625 -0.25 C11.62402344 -0.28351562 12.62304688 -0.31703125 13.65234375 -0.3515625 C19.7947423 -0.43291877 23.35634505 -0.15171076 28 4 C32.47987003 9.93280085 33.22475534 14.47304246 33.3125 21.75 C33.34150391 22.53632813 33.37050781 23.32265625 33.40039062 24.1328125 C33.46312542 29.94301963 32.34572845 33.22991251 29 38 C25.51100979 41.02379152 23.75883949 41.95104261 19.125 42.25 C18.09375 42.1675 17.0625 42.085 16 42 C16 39.69 16 37.38 16 35 C17.32 34.34 18.64 33.68 20 33 C19.12988281 32.96132812 19.12988281 32.96132812 18.2421875 32.921875 C11.3756188 32.42331226 7.34676921 30.66390019 2.6875 25.375 C0.28667666 21.99606345 -0.12233115 20.30697095 -0.09765625 16.2109375 C-0.09443359 15.26992188 -0.09121094 14.32890625 -0.08789062 13.359375 C-0.07951172 12.37453125 -0.07113281 11.3896875 -0.0625 10.375 C-0.05798828 9.38242187 -0.05347656 8.38984375 -0.04882812 7.3671875 C-0.03702145 4.9113984 -0.020554 2.45572896 0 0 Z M8 7 C7.91902676 9.27024968 7.86082296 11.54132075 7.8125 13.8125 C7.77769531 15.07707031 7.74289063 16.34164063 7.70703125 17.64453125 C7.72518653 20.90563443 7.72518653 20.90563443 9.23828125 22.890625 C12.57775268 24.99352941 16.11888727 25.21107806 20 25 C23.12804555 23.69788858 23.12804555 23.69788858 25 21 C26.14009771 17.08091414 26.40888632 14.96841496 24.8125 11.1875 C22.87144123 8.84484286 21.80236166 8.08682896 19 7 C16.17914272 6.75926806 16.17914272 6.75926806 13.25 6.875 C12.26515625 6.89304687 11.2803125 6.91109375 10.265625 6.9296875 C9.51796875 6.95289063 8.7703125 6.97609375 8 7 Z " fill="#F7A580" transform="translate(82,7)"/>
<path d="M0 0 C3.37483413 -0.08767555 6.74937215 -0.14061628 10.125 -0.1875 C11.55199219 -0.22520508 11.55199219 -0.22520508 13.0078125 -0.26367188 C18.44195799 -0.32027756 22.33222539 -0.12171297 27 3 C32.47021225 9.06158655 32.24003933 13.35661812 32.3125 21.25 C32.34150391 22.28769531 32.37050781 23.32539063 32.40039062 24.39453125 C32.45193152 30.60322633 32.19175783 34.29968331 28 39 C24.05062318 42.20219742 20.99834992 42.29402058 16 42 C16 39.69 16 37.38 16 35 C17.32 34.34 18.64 33.68 20 33 C19.12988281 32.96132812 19.12988281 32.96132812 18.2421875 32.921875 C11.3756188 32.42331226 7.34676921 30.66390019 2.6875 25.375 C0.28667666 21.99606345 -0.12233115 20.30697095 -0.09765625 16.2109375 C-0.09443359 15.26992188 -0.09121094 14.32890625 -0.08789062 13.359375 C-0.07951172 12.37453125 -0.07113281 11.3896875 -0.0625 10.375 C-0.05798828 9.38242187 -0.05347656 8.38984375 -0.04882812 7.3671875 C-0.03702145 4.9113984 -0.020554 2.45572896 0 0 Z M8 7 C6.73414184 14.6827851 6.73414184 14.6827851 9 22 C11.70660412 24.25550343 13.51872536 24.92981411 17 25.4375 C20.86345665 24.87407924 22.39443424 23.9033447 25 21 C25.91108416 17.59861914 26.29488416 15.17953664 25.4375 11.75 C23.21688366 9.04664098 21.30900573 8.18178776 18 7 C14.64947765 6.76496336 11.35216647 6.82112946 8 7 Z " fill="#458AC4" transform="translate(118,7)"/>
<path d="M0 0 C4.1796989 2.8497947 7.11864324 5.98092971 8.75 10.875 C8.83106686 12.42921729 8.85756898 13.98667027 8.84765625 15.54296875 C8.84443359 16.43564453 8.84121094 17.32832031 8.83789062 18.24804688 C8.82532227 19.64120117 8.82532227 19.64120117 8.8125 21.0625 C8.80798828 22.00287109 8.80347656 22.94324219 8.79882812 23.91210938 C8.78704626 26.23313712 8.77059558 28.55403644 8.75 30.875 C6.44 30.875 4.13 30.875 1.75 30.875 C1.71261719 29.80121094 1.67523438 28.72742188 1.63671875 27.62109375 C1.57100888 26.1848638 1.50456332 24.74866738 1.4375 23.3125 C1.41494141 22.60802734 1.39238281 21.90355469 1.36914062 21.17773438 C1.11308479 16.12645113 0.20231902 12.33272009 -2.25 7.875 C-5.75171371 6.79265213 -8.02075334 6.54277117 -11.5625 7.5 C-14.28476206 9.71813946 -15.06763249 12.42806473 -15.50219727 15.87597656 C-15.66878608 18.14640868 -15.78347943 20.41283259 -15.875 22.6875 C-15.93300781 23.86989258 -15.93300781 23.86989258 -15.9921875 25.07617188 C-16.08588844 27.0087538 -16.16900779 28.94184376 -16.25 30.875 C-18.89 30.875 -21.53 30.875 -24.25 30.875 C-24.92763936 9.01485632 -24.92763936 9.01485632 -19.8203125 3.265625 C-14.00461967 -1.88459054 -7.17213819 -2.48266322 0 0 Z " fill="#488CC5" transform="translate(70.25,8.125)"/>
<path d="M0 0 C10.56 0 21.12 0 32 0 C32 2.31 32 4.62 32 7 C27.71 7 23.42 7 19 7 C18.81194427 12.35958823 18.75182997 17.01492732 21 22 C23.3067604 23.50232432 25.33544056 24.16115721 28 25 C28 27.31 28 29.62 28 32 C21.2960802 31.8361264 17.68068575 30.90901189 13 26 C10.48198142 22.32113218 10.76957846 18.5398459 10.875 14.25 C10.88402344 13.55261719 10.89304687 12.85523438 10.90234375 12.13671875 C10.92580112 10.42433042 10.96166896 8.71211996 11 7 C7.37 7 3.74 7 0 7 C0 4.69 0 2.38 0 0 Z " fill="#488CC5" transform="translate(1,7)"/>
<path d="M0 0 C1.4540625 0.0309375 1.4540625 0.0309375 2.9375 0.0625 C3.71550681 4.86245203 4.05601665 9.44812064 4.03515625 14.30859375 C4.0337413 14.96457047 4.03232635 15.62054718 4.03086853 16.29640198 C4.02533031 18.36431702 4.01279002 20.43211842 4 22.5 C3.99497699 23.91340988 3.9904155 25.32682148 3.98632812 26.74023438 C3.97538126 30.18102568 3.95816038 33.62175172 3.9375 37.0625 C1.2975 37.0625 -1.3425 37.0625 -4.0625 37.0625 C-4.0871501 31.95386104 -4.10533607 26.84525641 -4.11743164 21.73657227 C-4.12247204 19.99730832 -4.1293043 18.25804864 -4.13793945 16.51879883 C-4.15001792 14.02424063 -4.15573108 11.52973827 -4.16015625 9.03515625 C-4.16531754 8.25286148 -4.17047882 7.47056671 -4.17579651 6.66456604 C-4.17599226 4.79682886 -4.12449694 2.92920796 -4.0625 1.0625 C-3.0625 0.0625 -3.0625 0.0625 0 0 Z " fill="#2979BC" transform="translate(39.0625,1.9375)"/>
<path d="M0 0 C1.4540625 0.0309375 1.4540625 0.0309375 2.9375 0.0625 C3.71550681 4.86245203 4.05601665 9.44812064 4.03515625 14.30859375 C4.0337413 14.96457047 4.03232635 15.62054718 4.03086853 16.29640198 C4.02533031 18.36431702 4.01279002 20.43211842 4 22.5 C3.99497699 23.91340988 3.9904155 25.32682148 3.98632812 26.74023438 C3.97538126 30.18102568 3.95816038 33.62175172 3.9375 37.0625 C1.2975 37.0625 -1.3425 37.0625 -4.0625 37.0625 C-4.0871501 31.95386104 -4.10533607 26.84525641 -4.11743164 21.73657227 C-4.12247204 19.99730832 -4.1293043 18.25804864 -4.13793945 16.51879883 C-4.15001792 14.02424063 -4.15573108 11.52973827 -4.16015625 9.03515625 C-4.16531754 8.25286148 -4.17047882 7.47056671 -4.17579651 6.66456604 C-4.17599226 4.79682886 -4.12449694 2.92920796 -4.0625 1.0625 C-3.0625 0.0625 -3.0625 0.0625 0 0 Z M-3.0625 8.0625 C-3.0625 17.3025 -3.0625 26.5425 -3.0625 36.0625 C-1.0825 36.0625 0.8975 36.0625 2.9375 36.0625 C2.9375 26.8225 2.9375 17.5825 2.9375 8.0625 C0.9575 8.0625 -1.0225 8.0625 -3.0625 8.0625 Z " fill="#BED6EA" transform="translate(39.0625,1.9375)"/>
<path d="M0 0 C1.4540625 0.0309375 1.4540625 0.0309375 2.9375 0.0625 C3.2675 2.0425 3.5975 4.0225 3.9375 6.0625 C-1.8125 7.1875 -1.8125 7.1875 -4.0625 6.0625 C-4.105221 4.39638095 -4.10313832 2.72867115 -4.0625 1.0625 C-3.0625 0.0625 -3.0625 0.0625 0 0 Z " fill="#4E90C7" transform="translate(39.0625,1.9375)"/>
</svg>
